<mxfile host="app.diagrams.net" agent="Mozilla/5.0 (Windows NT 10.0; Win64; x64) AppleWebKit/537.36 (KHTML, like Gecko) Chrome/132.0.0.0 Safari/537.36" version="26.0.11">
  <diagram id="R2lEEEUBdFMjLlhIrx00" name="Page-1">
    <mxGraphModel dx="1434" dy="780" grid="1" gridSize="10" guides="1" tooltips="1" connect="1" arrows="1" fold="1" page="1" pageScale="1" pageWidth="850" pageHeight="1100" math="0" shadow="0" extFonts="Permanent Marker^https://fonts.googleapis.com/css?family=Permanent+Marker">
      <root>
        <mxCell id="0" />
        <mxCell id="1" parent="0" />
        <mxCell id="LqF-pNgd6m8_VKGdEy8y-27" style="edgeStyle=orthogonalEdgeStyle;rounded=0;orthogonalLoop=1;jettySize=auto;html=1;exitX=0;exitY=0;exitDx=0;exitDy=0;" edge="1" parent="1" source="LqF-pNgd6m8_VKGdEy8y-32">
          <mxGeometry relative="1" as="geometry">
            <mxPoint x="200" y="190" as="targetPoint" />
          </mxGeometry>
        </mxCell>
        <mxCell id="LqF-pNgd6m8_VKGdEy8y-28" style="edgeStyle=orthogonalEdgeStyle;rounded=0;orthogonalLoop=1;jettySize=auto;html=1;exitX=0.25;exitY=0;exitDx=0;exitDy=0;entryX=0;entryY=0.5;entryDx=0;entryDy=0;" edge="1" parent="1" source="LqF-pNgd6m8_VKGdEy8y-32" target="LqF-pNgd6m8_VKGdEy8y-46">
          <mxGeometry relative="1" as="geometry" />
        </mxCell>
        <mxCell id="LqF-pNgd6m8_VKGdEy8y-29" value="" style="edgeStyle=orthogonalEdgeStyle;rounded=0;orthogonalLoop=1;jettySize=auto;html=1;" edge="1" parent="1" source="LqF-pNgd6m8_VKGdEy8y-32" target="LqF-pNgd6m8_VKGdEy8y-47">
          <mxGeometry relative="1" as="geometry" />
        </mxCell>
        <mxCell id="LqF-pNgd6m8_VKGdEy8y-30" value="" style="edgeStyle=orthogonalEdgeStyle;rounded=0;orthogonalLoop=1;jettySize=auto;html=1;" edge="1" parent="1" source="LqF-pNgd6m8_VKGdEy8y-32" target="LqF-pNgd6m8_VKGdEy8y-48">
          <mxGeometry relative="1" as="geometry">
            <Array as="points">
              <mxPoint x="350" y="250" />
            </Array>
          </mxGeometry>
        </mxCell>
        <mxCell id="LqF-pNgd6m8_VKGdEy8y-31" value="" style="edgeStyle=orthogonalEdgeStyle;rounded=0;orthogonalLoop=1;jettySize=auto;html=1;" edge="1" parent="1" source="LqF-pNgd6m8_VKGdEy8y-32" target="LqF-pNgd6m8_VKGdEy8y-50">
          <mxGeometry relative="1" as="geometry" />
        </mxCell>
        <mxCell id="LqF-pNgd6m8_VKGdEy8y-32" value="Task" style="shape=ext;margin=3;double=1;whiteSpace=wrap;html=1;align=center;" vertex="1" parent="1">
          <mxGeometry x="300" y="170" width="100" height="40" as="geometry" />
        </mxCell>
        <mxCell id="LqF-pNgd6m8_VKGdEy8y-33" style="edgeStyle=orthogonalEdgeStyle;rounded=0;orthogonalLoop=1;jettySize=auto;html=1;" edge="1" parent="1" source="LqF-pNgd6m8_VKGdEy8y-36" target="LqF-pNgd6m8_VKGdEy8y-45">
          <mxGeometry relative="1" as="geometry">
            <mxPoint x="610" y="450" as="targetPoint" />
          </mxGeometry>
        </mxCell>
        <mxCell id="LqF-pNgd6m8_VKGdEy8y-34" style="edgeStyle=orthogonalEdgeStyle;rounded=0;orthogonalLoop=1;jettySize=auto;html=1;exitX=1;exitY=0.75;exitDx=0;exitDy=0;" edge="1" parent="1" source="LqF-pNgd6m8_VKGdEy8y-36" target="LqF-pNgd6m8_VKGdEy8y-41">
          <mxGeometry relative="1" as="geometry" />
        </mxCell>
        <mxCell id="LqF-pNgd6m8_VKGdEy8y-35" style="edgeStyle=orthogonalEdgeStyle;rounded=0;orthogonalLoop=1;jettySize=auto;html=1;exitX=0.5;exitY=1;exitDx=0;exitDy=0;entryX=0;entryY=1;entryDx=0;entryDy=0;" edge="1" parent="1" source="LqF-pNgd6m8_VKGdEy8y-36" target="LqF-pNgd6m8_VKGdEy8y-44">
          <mxGeometry relative="1" as="geometry" />
        </mxCell>
        <mxCell id="LqF-pNgd6m8_VKGdEy8y-36" value="Person" style="rounded=1;arcSize=10;whiteSpace=wrap;html=1;align=center;" vertex="1" parent="1">
          <mxGeometry x="560" y="490" width="100" height="40" as="geometry" />
        </mxCell>
        <mxCell id="LqF-pNgd6m8_VKGdEy8y-37" style="edgeStyle=orthogonalEdgeStyle;rounded=0;orthogonalLoop=1;jettySize=auto;html=1;exitX=0.5;exitY=1;exitDx=0;exitDy=0;entryX=0.5;entryY=0;entryDx=0;entryDy=0;" edge="1" parent="1" source="LqF-pNgd6m8_VKGdEy8y-38" target="LqF-pNgd6m8_VKGdEy8y-49">
          <mxGeometry relative="1" as="geometry" />
        </mxCell>
        <mxCell id="LqF-pNgd6m8_VKGdEy8y-38" value="Make" style="shape=rhombus;double=1;perimeter=rhombusPerimeter;whiteSpace=wrap;html=1;align=center;" vertex="1" parent="1">
          <mxGeometry x="200" y="490" width="120" height="60" as="geometry" />
        </mxCell>
        <mxCell id="LqF-pNgd6m8_VKGdEy8y-39" value="" style="edgeStyle=entityRelationEdgeStyle;fontSize=12;html=1;endArrow=ERoneToMany;rounded=0;exitX=0.5;exitY=0;exitDx=0;exitDy=0;" edge="1" parent="1" source="LqF-pNgd6m8_VKGdEy8y-38" target="LqF-pNgd6m8_VKGdEy8y-32">
          <mxGeometry width="100" height="100" relative="1" as="geometry">
            <mxPoint x="430" y="460" as="sourcePoint" />
            <mxPoint x="330" y="210" as="targetPoint" />
          </mxGeometry>
        </mxCell>
        <mxCell id="LqF-pNgd6m8_VKGdEy8y-40" value="" style="edgeStyle=entityRelationEdgeStyle;fontSize=12;html=1;endArrow=ERmandOne;startArrow=ERmandOne;rounded=0;exitX=1;exitY=0.5;exitDx=0;exitDy=0;entryX=0;entryY=0.75;entryDx=0;entryDy=0;" edge="1" parent="1" source="LqF-pNgd6m8_VKGdEy8y-38" target="LqF-pNgd6m8_VKGdEy8y-36">
          <mxGeometry width="100" height="100" relative="1" as="geometry">
            <mxPoint x="430" y="460" as="sourcePoint" />
            <mxPoint x="530" y="360" as="targetPoint" />
          </mxGeometry>
        </mxCell>
        <mxCell id="LqF-pNgd6m8_VKGdEy8y-41" value="ID" style="ellipse;whiteSpace=wrap;html=1;align=center;fontStyle=4;" vertex="1" parent="1">
          <mxGeometry x="760" y="490" width="100" height="40" as="geometry" />
        </mxCell>
        <mxCell id="LqF-pNgd6m8_VKGdEy8y-42" value="" style="edgeStyle=orthogonalEdgeStyle;rounded=0;orthogonalLoop=1;jettySize=auto;html=1;" edge="1" parent="1" source="LqF-pNgd6m8_VKGdEy8y-44" target="LqF-pNgd6m8_VKGdEy8y-52">
          <mxGeometry relative="1" as="geometry" />
        </mxCell>
        <mxCell id="LqF-pNgd6m8_VKGdEy8y-43" style="edgeStyle=orthogonalEdgeStyle;rounded=0;orthogonalLoop=1;jettySize=auto;html=1;exitX=1;exitY=1;exitDx=0;exitDy=0;entryX=0.5;entryY=0;entryDx=0;entryDy=0;" edge="1" parent="1" source="LqF-pNgd6m8_VKGdEy8y-44" target="LqF-pNgd6m8_VKGdEy8y-51">
          <mxGeometry relative="1" as="geometry" />
        </mxCell>
        <mxCell id="LqF-pNgd6m8_VKGdEy8y-44" value="Account" style="ellipse;whiteSpace=wrap;html=1;align=center;" vertex="1" parent="1">
          <mxGeometry x="680" y="530" width="100" height="40" as="geometry" />
        </mxCell>
        <mxCell id="LqF-pNgd6m8_VKGdEy8y-45" value="Name" style="ellipse;whiteSpace=wrap;html=1;align=center;" vertex="1" parent="1">
          <mxGeometry x="680" y="450" width="100" height="40" as="geometry" />
        </mxCell>
        <mxCell id="LqF-pNgd6m8_VKGdEy8y-46" value="TXT" style="ellipse;whiteSpace=wrap;html=1;align=center;" vertex="1" parent="1">
          <mxGeometry x="180" y="60" width="100" height="40" as="geometry" />
        </mxCell>
        <mxCell id="LqF-pNgd6m8_VKGdEy8y-47" value="ID" style="ellipse;whiteSpace=wrap;html=1;align=center;" vertex="1" parent="1">
          <mxGeometry x="420" y="170" width="100" height="40" as="geometry" />
        </mxCell>
        <mxCell id="LqF-pNgd6m8_VKGdEy8y-48" value="Creation Time" style="ellipse;whiteSpace=wrap;html=1;align=center;" vertex="1" parent="1">
          <mxGeometry x="370" y="230" width="100" height="40" as="geometry" />
        </mxCell>
        <mxCell id="LqF-pNgd6m8_VKGdEy8y-49" value="Processing" style="ellipse;shape=doubleEllipse;margin=3;whiteSpace=wrap;html=1;align=center;" vertex="1" parent="1">
          <mxGeometry x="210" y="590" width="100" height="40" as="geometry" />
        </mxCell>
        <mxCell id="LqF-pNgd6m8_VKGdEy8y-50" value="User ID" style="ellipse;whiteSpace=wrap;html=1;align=center;" vertex="1" parent="1">
          <mxGeometry x="370" y="100" width="100" height="40" as="geometry" />
        </mxCell>
        <mxCell id="LqF-pNgd6m8_VKGdEy8y-51" value="Email" style="ellipse;whiteSpace=wrap;html=1;align=center;" vertex="1" parent="1">
          <mxGeometry x="760" y="630" width="100" height="40" as="geometry" />
        </mxCell>
        <mxCell id="LqF-pNgd6m8_VKGdEy8y-52" value="Password" style="ellipse;whiteSpace=wrap;html=1;align=center;" vertex="1" parent="1">
          <mxGeometry x="630" y="630" width="100" height="40" as="geometry" />
        </mxCell>
        <mxCell id="LqF-pNgd6m8_VKGdEy8y-53" value="Title" style="ellipse;whiteSpace=wrap;html=1;align=center;" vertex="1" parent="1">
          <mxGeometry x="100" y="170" width="100" height="40" as="geometry" />
        </mxCell>
      </root>
    </mxGraphModel>
  </diagram>
</mxfile>
